<mxfile host="app.diagrams.net" agent="Mozilla/5.0 (Windows NT 10.0; Win64; x64) AppleWebKit/537.36 (KHTML, like Gecko) Chrome/138.0.0.0 Safari/537.36" version="28.2.0">
  <diagram name="ページ1" id="45_V_32jaVrXdAG3Mk1q">
    <mxGraphModel dx="2036" dy="766" grid="1" gridSize="10" guides="1" tooltips="1" connect="1" arrows="1" fold="1" page="1" pageScale="1" pageWidth="827" pageHeight="1169" math="0" shadow="0">
      <root>
        <mxCell id="0" />
        <mxCell id="1" parent="0" />
        <mxCell id="kaWQqPzL3g8F-8cvmevA-49" value="" style="rounded=0;whiteSpace=wrap;html=1;" vertex="1" parent="1">
          <mxGeometry x="70" y="30" width="320" height="300" as="geometry" />
        </mxCell>
        <mxCell id="kaWQqPzL3g8F-8cvmevA-35" value="氏名&lt;br&gt;住所&lt;br&gt;電話番号&lt;br&gt;電子メールアドレス" style="rounded=0;whiteSpace=wrap;html=1;fillColor=#d5e8d4;strokeColor=#82b366;" vertex="1" parent="1">
          <mxGeometry x="-120" y="40" width="120" height="120" as="geometry" />
        </mxCell>
        <mxCell id="kaWQqPzL3g8F-8cvmevA-36" value="確認" style="rounded=0;whiteSpace=wrap;html=1;fillColor=#d5e8d4;strokeColor=#82b366;" vertex="1" parent="1">
          <mxGeometry x="80" y="280" width="80" height="40" as="geometry" />
        </mxCell>
        <mxCell id="kaWQqPzL3g8F-8cvmevA-37" value="図書の&lt;br&gt;レンタル" style="rounded=0;whiteSpace=wrap;html=1;fillColor=#d5e8d4;strokeColor=#82b366;" vertex="1" parent="1">
          <mxGeometry x="80" y="120" width="80" height="40" as="geometry" />
        </mxCell>
        <mxCell id="kaWQqPzL3g8F-8cvmevA-38" value="連絡" style="rounded=0;whiteSpace=wrap;html=1;fillColor=#d5e8d4;strokeColor=#82b366;" vertex="1" parent="1">
          <mxGeometry x="80" y="200" width="80" height="40" as="geometry" />
        </mxCell>
        <mxCell id="kaWQqPzL3g8F-8cvmevA-45" style="edgeStyle=orthogonalEdgeStyle;rounded=0;orthogonalLoop=1;jettySize=auto;html=1;exitX=1;exitY=0.25;exitDx=0;exitDy=0;entryX=0;entryY=0.25;entryDx=0;entryDy=0;" edge="1" parent="1" source="kaWQqPzL3g8F-8cvmevA-39" target="kaWQqPzL3g8F-8cvmevA-40">
          <mxGeometry relative="1" as="geometry" />
        </mxCell>
        <mxCell id="kaWQqPzL3g8F-8cvmevA-39" value="検索" style="rounded=0;whiteSpace=wrap;html=1;fillColor=#d5e8d4;strokeColor=#82b366;" vertex="1" parent="1">
          <mxGeometry x="80" y="40" width="80" height="40" as="geometry" />
        </mxCell>
        <mxCell id="kaWQqPzL3g8F-8cvmevA-46" style="edgeStyle=orthogonalEdgeStyle;rounded=0;orthogonalLoop=1;jettySize=auto;html=1;exitX=0;exitY=0.75;exitDx=0;exitDy=0;entryX=1;entryY=0.75;entryDx=0;entryDy=0;" edge="1" parent="1" source="kaWQqPzL3g8F-8cvmevA-40" target="kaWQqPzL3g8F-8cvmevA-39">
          <mxGeometry relative="1" as="geometry" />
        </mxCell>
        <mxCell id="kaWQqPzL3g8F-8cvmevA-40" value="書名&lt;div&gt;著者名&lt;/div&gt;" style="rounded=0;whiteSpace=wrap;html=1;fillColor=#d5e8d4;strokeColor=#82b366;" vertex="1" parent="1">
          <mxGeometry x="240" y="40" width="140" height="40" as="geometry" />
        </mxCell>
        <mxCell id="kaWQqPzL3g8F-8cvmevA-47" value="図書カードの作成" style="rounded=0;whiteSpace=wrap;html=1;fillColor=#d5e8d4;strokeColor=#82b366;" vertex="1" parent="1">
          <mxGeometry x="-280" y="40" width="80" height="40" as="geometry" />
        </mxCell>
        <mxCell id="kaWQqPzL3g8F-8cvmevA-48" style="edgeStyle=orthogonalEdgeStyle;rounded=0;orthogonalLoop=1;jettySize=auto;html=1;exitX=1;exitY=0.5;exitDx=0;exitDy=0;entryX=0;entryY=0.17;entryDx=0;entryDy=0;entryPerimeter=0;" edge="1" parent="1" source="kaWQqPzL3g8F-8cvmevA-47" target="kaWQqPzL3g8F-8cvmevA-35">
          <mxGeometry relative="1" as="geometry" />
        </mxCell>
        <mxCell id="kaWQqPzL3g8F-8cvmevA-50" style="edgeStyle=orthogonalEdgeStyle;rounded=0;orthogonalLoop=1;jettySize=auto;html=1;exitX=1;exitY=0.25;exitDx=0;exitDy=0;entryX=-0.013;entryY=0.132;entryDx=0;entryDy=0;entryPerimeter=0;" edge="1" parent="1" source="kaWQqPzL3g8F-8cvmevA-35" target="kaWQqPzL3g8F-8cvmevA-49">
          <mxGeometry relative="1" as="geometry" />
        </mxCell>
        <mxCell id="kaWQqPzL3g8F-8cvmevA-51" value="残りの借りられる本数&lt;br&gt;書名　著者名　貸出期間" style="rounded=0;whiteSpace=wrap;html=1;fillColor=#d5e8d4;strokeColor=#82b366;" vertex="1" parent="1">
          <mxGeometry x="240" y="280" width="140" height="40" as="geometry" />
        </mxCell>
        <mxCell id="kaWQqPzL3g8F-8cvmevA-52" style="edgeStyle=orthogonalEdgeStyle;rounded=0;orthogonalLoop=1;jettySize=auto;html=1;exitX=1;exitY=0.25;exitDx=0;exitDy=0;entryX=0;entryY=0.25;entryDx=0;entryDy=0;" edge="1" parent="1">
          <mxGeometry relative="1" as="geometry">
            <mxPoint x="160" y="290" as="sourcePoint" />
            <mxPoint x="240" y="290" as="targetPoint" />
          </mxGeometry>
        </mxCell>
        <mxCell id="kaWQqPzL3g8F-8cvmevA-53" style="edgeStyle=orthogonalEdgeStyle;rounded=0;orthogonalLoop=1;jettySize=auto;html=1;exitX=0;exitY=0.75;exitDx=0;exitDy=0;entryX=1;entryY=0.75;entryDx=0;entryDy=0;" edge="1" parent="1">
          <mxGeometry relative="1" as="geometry">
            <mxPoint x="240" y="310" as="sourcePoint" />
            <mxPoint x="160" y="310" as="targetPoint" />
          </mxGeometry>
        </mxCell>
        <mxCell id="kaWQqPzL3g8F-8cvmevA-54" value="&lt;div&gt;予約カード　電話番号&lt;/div&gt;&lt;div&gt;電子メールアドレス&lt;/div&gt;" style="rounded=0;whiteSpace=wrap;html=1;fillColor=#d5e8d4;strokeColor=#82b366;" vertex="1" parent="1">
          <mxGeometry x="240" y="200" width="140" height="40" as="geometry" />
        </mxCell>
        <mxCell id="kaWQqPzL3g8F-8cvmevA-55" style="edgeStyle=orthogonalEdgeStyle;rounded=0;orthogonalLoop=1;jettySize=auto;html=1;exitX=1;exitY=0.25;exitDx=0;exitDy=0;entryX=0;entryY=0.25;entryDx=0;entryDy=0;" edge="1" parent="1">
          <mxGeometry relative="1" as="geometry">
            <mxPoint x="160" y="210" as="sourcePoint" />
            <mxPoint x="240" y="210" as="targetPoint" />
          </mxGeometry>
        </mxCell>
        <mxCell id="kaWQqPzL3g8F-8cvmevA-56" style="edgeStyle=orthogonalEdgeStyle;rounded=0;orthogonalLoop=1;jettySize=auto;html=1;exitX=0;exitY=0.75;exitDx=0;exitDy=0;entryX=1;entryY=0.75;entryDx=0;entryDy=0;" edge="1" parent="1">
          <mxGeometry relative="1" as="geometry">
            <mxPoint x="240" y="230" as="sourcePoint" />
            <mxPoint x="160" y="230" as="targetPoint" />
          </mxGeometry>
        </mxCell>
        <mxCell id="kaWQqPzL3g8F-8cvmevA-57" value="図書貸し出しシステムでできる事" style="text;html=1;align=center;verticalAlign=middle;whiteSpace=wrap;rounded=0;" vertex="1" parent="1">
          <mxGeometry x="120" width="190" height="30" as="geometry" />
        </mxCell>
        <mxCell id="kaWQqPzL3g8F-8cvmevA-59" value="" style="endArrow=none;html=1;rounded=0;" edge="1" parent="1">
          <mxGeometry width="50" height="50" relative="1" as="geometry">
            <mxPoint x="-160" y="380" as="sourcePoint" />
            <mxPoint x="-160" y="60" as="targetPoint" />
          </mxGeometry>
        </mxCell>
        <mxCell id="kaWQqPzL3g8F-8cvmevA-60" value="" style="endArrow=none;html=1;rounded=0;" edge="1" parent="1">
          <mxGeometry width="50" height="50" relative="1" as="geometry">
            <mxPoint x="-160" y="380" as="sourcePoint" />
            <mxPoint x="80" y="380" as="targetPoint" />
          </mxGeometry>
        </mxCell>
        <mxCell id="kaWQqPzL3g8F-8cvmevA-61" value="発行した図書カードの取り消し" style="rounded=0;whiteSpace=wrap;html=1;fillColor=#d5e8d4;strokeColor=#82b366;" vertex="1" parent="1">
          <mxGeometry x="80" y="360" width="120" height="40" as="geometry" />
        </mxCell>
        <mxCell id="kaWQqPzL3g8F-8cvmevA-66" value="" style="endArrow=none;html=1;rounded=0;" edge="1" parent="1">
          <mxGeometry width="50" height="50" relative="1" as="geometry">
            <mxPoint x="40" y="140" as="sourcePoint" />
            <mxPoint x="80" y="140" as="targetPoint" />
          </mxGeometry>
        </mxCell>
        <mxCell id="kaWQqPzL3g8F-8cvmevA-67" value="" style="endArrow=none;html=1;rounded=0;" edge="1" parent="1">
          <mxGeometry width="50" height="50" relative="1" as="geometry">
            <mxPoint x="40" y="340" as="sourcePoint" />
            <mxPoint x="40" y="140" as="targetPoint" />
          </mxGeometry>
        </mxCell>
        <mxCell id="kaWQqPzL3g8F-8cvmevA-68" value="" style="endArrow=none;html=1;rounded=0;" edge="1" parent="1">
          <mxGeometry width="50" height="50" relative="1" as="geometry">
            <mxPoint x="40" y="340" as="sourcePoint" />
            <mxPoint x="130" y="340" as="targetPoint" />
          </mxGeometry>
        </mxCell>
        <mxCell id="kaWQqPzL3g8F-8cvmevA-69" value="" style="endArrow=classic;html=1;rounded=0;entryX=0.406;entryY=-0.096;entryDx=0;entryDy=0;entryPerimeter=0;" edge="1" parent="1" target="kaWQqPzL3g8F-8cvmevA-61">
          <mxGeometry width="50" height="50" relative="1" as="geometry">
            <mxPoint x="130" y="340" as="sourcePoint" />
            <mxPoint x="180" y="290" as="targetPoint" />
          </mxGeometry>
        </mxCell>
        <mxCell id="kaWQqPzL3g8F-8cvmevA-70" value="返却期間を過ぎる&lt;div&gt;&lt;br&gt;催促に応じない&lt;/div&gt;" style="text;html=1;align=center;verticalAlign=middle;whiteSpace=wrap;rounded=0;" vertex="1" parent="1">
          <mxGeometry x="-20" y="230" width="60" height="30" as="geometry" />
        </mxCell>
        <mxCell id="kaWQqPzL3g8F-8cvmevA-72" value="図書カード" style="rounded=0;whiteSpace=wrap;html=1;" vertex="1" parent="1">
          <mxGeometry x="320" y="560" width="120" height="40" as="geometry" />
        </mxCell>
        <mxCell id="kaWQqPzL3g8F-8cvmevA-73" value="住所" style="rounded=0;whiteSpace=wrap;html=1;" vertex="1" parent="1">
          <mxGeometry x="390" y="680" width="80" height="40" as="geometry" />
        </mxCell>
        <mxCell id="kaWQqPzL3g8F-8cvmevA-74" value="電話番号" style="rounded=0;whiteSpace=wrap;html=1;" vertex="1" parent="1">
          <mxGeometry x="490" y="680" width="80" height="40" as="geometry" />
        </mxCell>
        <mxCell id="kaWQqPzL3g8F-8cvmevA-75" value="氏名" style="rounded=0;whiteSpace=wrap;html=1;" vertex="1" parent="1">
          <mxGeometry x="190" y="680" width="80" height="40" as="geometry" />
        </mxCell>
        <mxCell id="kaWQqPzL3g8F-8cvmevA-80" value="" style="endArrow=block;html=1;rounded=0;endFill=0;entryX=0.85;entryY=0.999;entryDx=0;entryDy=0;entryPerimeter=0;exitX=0.25;exitY=0;exitDx=0;exitDy=0;" edge="1" parent="1" source="kaWQqPzL3g8F-8cvmevA-74" target="kaWQqPzL3g8F-8cvmevA-72">
          <mxGeometry width="50" height="50" relative="1" as="geometry">
            <mxPoint x="550" y="660" as="sourcePoint" />
            <mxPoint x="590" y="630" as="targetPoint" />
          </mxGeometry>
        </mxCell>
        <mxCell id="kaWQqPzL3g8F-8cvmevA-81" value="" style="endArrow=block;html=1;rounded=0;endFill=0;entryX=0.5;entryY=1;entryDx=0;entryDy=0;exitX=0.75;exitY=0;exitDx=0;exitDy=0;" edge="1" parent="1" source="kaWQqPzL3g8F-8cvmevA-75">
          <mxGeometry width="50" height="50" relative="1" as="geometry">
            <mxPoint x="180" y="680" as="sourcePoint" />
            <mxPoint x="340" y="600" as="targetPoint" />
          </mxGeometry>
        </mxCell>
        <mxCell id="kaWQqPzL3g8F-8cvmevA-82" value="ID&lt;br&gt;パスワード" style="rounded=0;whiteSpace=wrap;html=1;fillColor=#d5e8d4;strokeColor=#82b366;" vertex="1" parent="1">
          <mxGeometry x="-120" y="480" width="120" height="40" as="geometry" />
        </mxCell>
        <mxCell id="kaWQqPzL3g8F-8cvmevA-83" value="ログイン" style="rounded=0;whiteSpace=wrap;html=1;fillColor=#d5e8d4;strokeColor=#82b366;" vertex="1" parent="1">
          <mxGeometry x="80" y="480" width="130" height="40" as="geometry" />
        </mxCell>
        <mxCell id="kaWQqPzL3g8F-8cvmevA-84" value="" style="endArrow=classic;html=1;rounded=0;entryX=0;entryY=0.5;entryDx=0;entryDy=0;" edge="1" parent="1" target="kaWQqPzL3g8F-8cvmevA-83">
          <mxGeometry width="50" height="50" relative="1" as="geometry">
            <mxPoint y="500" as="sourcePoint" />
            <mxPoint x="50" y="450" as="targetPoint" />
          </mxGeometry>
        </mxCell>
        <mxCell id="kaWQqPzL3g8F-8cvmevA-85" value="住所" style="rounded=0;whiteSpace=wrap;html=1;" vertex="1" parent="1">
          <mxGeometry x="290" y="680" width="80" height="40" as="geometry" />
        </mxCell>
        <mxCell id="kaWQqPzL3g8F-8cvmevA-86" value="" style="endArrow=block;html=1;rounded=0;endFill=0;entryX=0.5;entryY=1;entryDx=0;entryDy=0;exitX=0.5;exitY=0;exitDx=0;exitDy=0;" edge="1" parent="1" source="kaWQqPzL3g8F-8cvmevA-85">
          <mxGeometry width="50" height="50" relative="1" as="geometry">
            <mxPoint x="270" y="680" as="sourcePoint" />
            <mxPoint x="360" y="600" as="targetPoint" />
          </mxGeometry>
        </mxCell>
        <mxCell id="kaWQqPzL3g8F-8cvmevA-87" value="" style="endArrow=block;html=1;rounded=0;endFill=0;entryX=0.5;entryY=1;entryDx=0;entryDy=0;exitX=0.5;exitY=0;exitDx=0;exitDy=0;" edge="1" parent="1" source="kaWQqPzL3g8F-8cvmevA-73">
          <mxGeometry width="50" height="50" relative="1" as="geometry">
            <mxPoint x="370" y="680" as="sourcePoint" />
            <mxPoint x="400" y="600" as="targetPoint" />
          </mxGeometry>
        </mxCell>
      </root>
    </mxGraphModel>
  </diagram>
</mxfile>
